<svg xmlns="http://www.w3.org/2000/svg" xmlns:xlink="http://www.w3.org/1999/xlink" width="500" zoomAndPan="magnify" viewBox="0 0 375 374.999991" height="500" preserveAspectRatio="xMidYMid meet" version="1.0"><defs><g/><clipPath id="771d1dea2a"><path d="M 70.554688 18.261719 L 78 18.261719 L 78 26 L 70.554688 26 Z M 70.554688 18.261719 " clip-rule="nonzero"/></clipPath><clipPath id="ba2d41c586"><path d="M 70.554688 18.261719 L 97 18.261719 L 97 47 L 70.554688 47 Z M 70.554688 18.261719 " clip-rule="nonzero"/></clipPath><clipPath id="e699806468"><path d="M 70.554688 18.261719 L 116 18.261719 L 116 68 L 70.554688 68 Z M 70.554688 18.261719 " clip-rule="nonzero"/></clipPath><clipPath id="ad9962690c"><path d="M 70.554688 18.261719 L 135 18.261719 L 135 88 L 70.554688 88 Z M 70.554688 18.261719 " clip-rule="nonzero"/></clipPath><clipPath id="e80c90ccb6"><path d="M 70.554688 18.261719 L 154 18.261719 L 154 109 L 70.554688 109 Z M 70.554688 18.261719 " clip-rule="nonzero"/></clipPath><clipPath id="8b0b497239"><path d="M 70.554688 18.261719 L 173 18.261719 L 173 130 L 70.554688 130 Z M 70.554688 18.261719 " clip-rule="nonzero"/></clipPath><clipPath id="7432d28da5"><path d="M 70.554688 18.261719 L 192 18.261719 L 192 150 L 70.554688 150 Z M 70.554688 18.261719 " clip-rule="nonzero"/></clipPath><clipPath id="e5a2774c53"><path d="M 70.554688 18.261719 L 211 18.261719 L 211 171 L 70.554688 171 Z M 70.554688 18.261719 " clip-rule="nonzero"/></clipPath><clipPath id="94c100f8c9"><path d="M 70.554688 18.261719 L 230 18.261719 L 230 192 L 70.554688 192 Z M 70.554688 18.261719 " clip-rule="nonzero"/></clipPath><clipPath id="641e32c2d5"><path d="M 70.554688 18.261719 L 249 18.261719 L 249 212 L 70.554688 212 Z M 70.554688 18.261719 " clip-rule="nonzero"/></clipPath><clipPath id="5ac5ff9ebd"><path d="M 70.554688 18.261719 L 268 18.261719 L 268 233 L 70.554688 233 Z M 70.554688 18.261719 " clip-rule="nonzero"/></clipPath><clipPath id="068a2fdbfc"><path d="M 70.554688 18.261719 L 287 18.261719 L 287 254 L 70.554688 254 Z M 70.554688 18.261719 " clip-rule="nonzero"/></clipPath><clipPath id="038bcb8f05"><path d="M 70.554688 18.261719 L 304.554688 18.261719 L 304.554688 274 L 70.554688 274 Z M 70.554688 18.261719 " clip-rule="nonzero"/></clipPath><clipPath id="65db4f1f59"><path d="M 70.554688 30 L 304.554688 30 L 304.554688 295 L 70.554688 295 Z M 70.554688 30 " clip-rule="nonzero"/></clipPath><clipPath id="f2a7bdfae5"><path d="M 70.554688 50 L 304.554688 50 L 304.554688 316 L 70.554688 316 Z M 70.554688 50 " clip-rule="nonzero"/></clipPath><clipPath id="cfa80dd2a1"><path d="M 70.554688 71 L 304.554688 71 L 304.554688 336 L 70.554688 336 Z M 70.554688 71 " clip-rule="nonzero"/></clipPath><clipPath id="6d9f78ac1d"><path d="M 70.554688 92 L 304.554688 92 L 304.554688 347.511719 L 70.554688 347.511719 Z M 70.554688 92 " clip-rule="nonzero"/></clipPath><clipPath id="2c3a465941"><path d="M 88 112 L 304.554688 112 L 304.554688 347.511719 L 88 347.511719 Z M 88 112 " clip-rule="nonzero"/></clipPath><clipPath id="5d64420758"><path d="M 107 133 L 304.554688 133 L 304.554688 347.511719 L 107 347.511719 Z M 107 133 " clip-rule="nonzero"/></clipPath><clipPath id="be8d604ad1"><path d="M 126 154 L 304.554688 154 L 304.554688 347.511719 L 126 347.511719 Z M 126 154 " clip-rule="nonzero"/></clipPath><clipPath id="c29b79c439"><path d="M 145 174 L 304.554688 174 L 304.554688 347.511719 L 145 347.511719 Z M 145 174 " clip-rule="nonzero"/></clipPath><clipPath id="a40f3f50f1"><path d="M 164 195 L 304.554688 195 L 304.554688 347.511719 L 164 347.511719 Z M 164 195 " clip-rule="nonzero"/></clipPath><clipPath id="0402bef1e0"><path d="M 183 216 L 304.554688 216 L 304.554688 347.511719 L 183 347.511719 Z M 183 216 " clip-rule="nonzero"/></clipPath><clipPath id="6a45355c70"><path d="M 202 236 L 304.554688 236 L 304.554688 347.511719 L 202 347.511719 Z M 202 236 " clip-rule="nonzero"/></clipPath><clipPath id="9fd847ce3d"><path d="M 221 257 L 304.554688 257 L 304.554688 347.511719 L 221 347.511719 Z M 221 257 " clip-rule="nonzero"/></clipPath><clipPath id="cd8a431291"><path d="M 240 278 L 304.554688 278 L 304.554688 347.511719 L 240 347.511719 Z M 240 278 " clip-rule="nonzero"/></clipPath><clipPath id="c3f80bea84"><path d="M 259 298 L 304.554688 298 L 304.554688 347.511719 L 259 347.511719 Z M 259 298 " clip-rule="nonzero"/></clipPath><clipPath id="0ad7b8ebfb"><path d="M 278 319 L 304.554688 319 L 304.554688 347.511719 L 278 347.511719 Z M 278 319 " clip-rule="nonzero"/></clipPath><clipPath id="84ad45a5db"><path d="M 297 340 L 304.554688 340 L 304.554688 347.511719 L 297 347.511719 Z M 297 340 " clip-rule="nonzero"/></clipPath><clipPath id="9687cc640f"><rect x="0" width="252" y="0" height="375"/></clipPath></defs><g clip-path="url(#771d1dea2a)"><path fill="#090e03" d="M 77.472656 18.269531 L 70.554688 25.984375 L 70.554688 18.269531 Z M 77.472656 18.269531 " fill-opacity="1" fill-rule="evenodd"/></g><g clip-path="url(#ba2d41c586)"><path fill="#c1ff72" d="M 96.367188 18.269531 L 86.253906 29.445312 L 81.730469 29.445312 L 81.730469 34.5 L 70.554688 46.472656 L 70.554688 36.894531 L 87.585938 18.269531 Z M 96.367188 18.269531 " fill-opacity="1" fill-rule="evenodd"/></g><g clip-path="url(#e699806468)"><path fill="#090e03" d="M 115.523438 18.269531 L 105.144531 29.445312 L 96.367188 29.445312 L 106.742188 18.269531 Z M 70.554688 67.226562 L 70.554688 57.648438 L 81.730469 45.40625 L 81.730469 54.988281 Z M 70.554688 67.226562 " fill-opacity="1" fill-rule="evenodd"/></g><g clip-path="url(#ad9962690c)"><path fill="#c1ff72" d="M 134.414062 18.269531 L 124.304688 29.445312 L 115.257812 29.445312 L 125.632812 18.269531 Z M 70.554688 87.980469 L 70.554688 78.136719 L 81.730469 66.164062 L 81.730469 75.742188 Z M 70.554688 87.980469 " fill-opacity="1" fill-rule="evenodd"/></g><g clip-path="url(#e80c90ccb6)"><path fill="#090e03" d="M 153.304688 18.269531 L 143.195312 29.445312 L 134.414062 29.445312 L 144.527344 18.269531 Z M 70.554688 108.46875 L 70.554688 98.890625 L 81.730469 86.648438 L 81.730469 96.496094 Z M 70.554688 108.46875 " fill-opacity="1" fill-rule="evenodd"/></g><g clip-path="url(#8b0b497239)"><path fill="#c1ff72" d="M 172.464844 18.269531 L 162.085938 29.445312 L 153.304688 29.445312 L 163.417969 18.269531 Z M 70.554688 129.222656 L 70.554688 119.644531 L 81.730469 107.40625 L 81.730469 116.984375 Z M 70.554688 129.222656 " fill-opacity="1" fill-rule="evenodd"/></g><g clip-path="url(#7432d28da5)"><path fill="#090e03" d="M 191.355469 18.269531 L 180.980469 29.445312 L 172.199219 29.445312 L 182.574219 18.269531 Z M 70.554688 149.976562 L 70.554688 140.132812 L 81.730469 128.160156 L 81.730469 137.738281 Z M 70.554688 149.976562 " fill-opacity="1" fill-rule="evenodd"/></g><g clip-path="url(#e5a2774c53)"><path fill="#c1ff72" d="M 210.246094 18.269531 L 200.136719 29.445312 L 191.089844 29.445312 L 201.464844 18.269531 Z M 70.554688 170.464844 L 70.554688 160.886719 L 81.730469 148.914062 L 81.730469 158.492188 Z M 70.554688 170.464844 " fill-opacity="1" fill-rule="evenodd"/></g><g clip-path="url(#94c100f8c9)"><path fill="#090e03" d="M 229.140625 18.269531 L 219.027344 29.445312 L 210.246094 29.445312 L 220.359375 18.269531 Z M 70.554688 191.21875 L 70.554688 181.640625 L 81.730469 169.402344 L 81.730469 178.980469 Z M 70.554688 191.21875 " fill-opacity="1" fill-rule="evenodd"/></g><g clip-path="url(#641e32c2d5)"><path fill="#c1ff72" d="M 248.296875 18.269531 L 237.917969 29.445312 L 229.140625 29.445312 L 239.25 18.269531 Z M 70.554688 211.972656 L 70.554688 202.128906 L 81.730469 190.15625 L 81.730469 199.734375 Z M 70.554688 211.972656 " fill-opacity="1" fill-rule="evenodd"/></g><g clip-path="url(#5ac5ff9ebd)"><path fill="#090e03" d="M 267.1875 18.269531 L 256.8125 29.445312 L 248.03125 29.445312 L 258.40625 18.269531 Z M 70.554688 232.460938 L 70.554688 222.882812 L 81.730469 210.910156 L 81.730469 220.488281 Z M 70.554688 232.460938 " fill-opacity="1" fill-rule="evenodd"/></g><g clip-path="url(#068a2fdbfc)"><path fill="#c1ff72" d="M 286.078125 18.269531 L 275.96875 29.445312 L 267.1875 29.445312 L 277.300781 18.269531 Z M 70.554688 253.214844 L 70.554688 243.636719 L 81.730469 231.398438 L 81.730469 240.976562 Z M 70.554688 253.214844 " fill-opacity="1" fill-rule="evenodd"/></g><g clip-path="url(#038bcb8f05)"><path fill="#090e03" d="M 304.4375 19.066406 L 293.265625 31.304688 L 293.265625 29.445312 L 286.078125 29.445312 L 296.191406 18.269531 L 304.4375 18.269531 Z M 70.554688 273.96875 L 70.554688 264.390625 L 81.730469 252.152344 L 81.730469 261.730469 Z M 70.554688 273.96875 " fill-opacity="1" fill-rule="evenodd"/></g><g clip-path="url(#65db4f1f59)"><path fill="#c1ff72" d="M 304.4375 39.820312 L 293.265625 51.792969 L 293.265625 42.214844 L 304.4375 30.242188 Z M 70.554688 294.457031 L 70.554688 284.878906 L 81.730469 272.90625 L 81.730469 282.484375 Z M 70.554688 294.457031 " fill-opacity="1" fill-rule="evenodd"/></g><g clip-path="url(#f2a7bdfae5)"><path fill="#090e03" d="M 304.4375 60.308594 L 293.265625 72.546875 L 293.265625 62.96875 L 304.4375 50.730469 Z M 70.554688 315.210938 L 70.554688 305.632812 L 81.730469 293.394531 L 81.730469 302.972656 Z M 70.554688 315.210938 " fill-opacity="1" fill-rule="evenodd"/></g><g clip-path="url(#cfa80dd2a1)"><path fill="#c1ff72" d="M 304.4375 81.0625 L 293.265625 93.300781 L 293.265625 83.722656 L 304.4375 71.484375 Z M 70.554688 335.964844 L 70.554688 326.386719 L 81.730469 314.148438 L 81.730469 323.726562 Z M 70.554688 335.964844 " fill-opacity="1" fill-rule="evenodd"/></g><g clip-path="url(#6d9f78ac1d)"><path fill="#090e03" d="M 304.4375 101.816406 L 293.265625 113.789062 L 293.265625 104.210938 L 304.4375 92.238281 Z M 70.554688 347.671875 L 70.554688 346.875 L 81.730469 334.902344 L 81.730469 336.496094 L 88.914062 336.496094 L 78.539062 347.671875 Z M 70.554688 347.671875 " fill-opacity="1" fill-rule="evenodd"/></g><g clip-path="url(#2c3a465941)"><path fill="#c1ff72" d="M 304.4375 122.304688 L 293.265625 134.542969 L 293.265625 124.964844 L 304.4375 112.726562 Z M 97.695312 347.671875 L 88.648438 347.671875 L 99.027344 336.496094 L 107.808594 336.496094 Z M 97.695312 347.671875 " fill-opacity="1" fill-rule="evenodd"/></g><g clip-path="url(#5d64420758)"><path fill="#090e03" d="M 304.4375 143.058594 L 293.265625 155.296875 L 293.265625 145.71875 L 304.4375 133.480469 Z M 116.585938 347.671875 L 107.808594 347.671875 L 117.917969 336.496094 L 126.699219 336.496094 Z M 116.585938 347.671875 " fill-opacity="1" fill-rule="evenodd"/></g><g clip-path="url(#be8d604ad1)"><path fill="#c1ff72" d="M 304.4375 163.8125 L 293.265625 175.785156 L 293.265625 166.207031 L 304.4375 154.234375 Z M 135.480469 347.671875 L 126.699219 347.671875 L 136.808594 336.496094 L 145.855469 336.496094 Z M 135.480469 347.671875 " fill-opacity="1" fill-rule="evenodd"/></g><g clip-path="url(#c29b79c439)"><path fill="#090e03" d="M 304.4375 184.300781 L 293.265625 196.539062 L 293.265625 186.960938 L 304.4375 174.722656 Z M 154.371094 347.671875 L 145.589844 347.671875 L 155.96875 336.496094 L 164.746094 336.496094 Z M 154.371094 347.671875 " fill-opacity="1" fill-rule="evenodd"/></g><g clip-path="url(#a40f3f50f1)"><path fill="#c1ff72" d="M 304.4375 205.054688 L 293.265625 217.292969 L 293.265625 207.714844 L 304.4375 195.476562 Z M 173.527344 347.671875 L 164.480469 347.671875 L 174.859375 336.496094 L 183.640625 336.496094 Z M 173.527344 347.671875 " fill-opacity="1" fill-rule="evenodd"/></g><g clip-path="url(#0402bef1e0)"><path fill="#090e03" d="M 304.4375 225.808594 L 293.265625 237.78125 L 293.265625 228.203125 L 304.4375 216.230469 Z M 192.421875 347.671875 L 183.640625 347.671875 L 193.75 336.496094 L 202.53125 336.496094 Z M 192.421875 347.671875 " fill-opacity="1" fill-rule="evenodd"/></g><g clip-path="url(#6a45355c70)"><path fill="#c1ff72" d="M 304.4375 246.5625 L 293.265625 258.535156 L 293.265625 248.957031 L 304.4375 236.71875 Z M 211.3125 347.671875 L 202.53125 347.671875 L 212.640625 336.496094 L 221.6875 336.496094 Z M 211.3125 347.671875 " fill-opacity="1" fill-rule="evenodd"/></g><g clip-path="url(#9fd847ce3d)"><path fill="#090e03" d="M 304.4375 267.050781 L 293.265625 279.289062 L 293.265625 269.710938 L 304.4375 257.472656 Z M 230.203125 347.671875 L 221.421875 347.671875 L 231.800781 336.496094 L 240.582031 336.496094 Z M 230.203125 347.671875 " fill-opacity="1" fill-rule="evenodd"/></g><g clip-path="url(#cd8a431291)"><path fill="#c1ff72" d="M 304.4375 287.804688 L 293.265625 299.777344 L 293.265625 290.199219 L 304.4375 278.226562 Z M 249.359375 347.671875 L 240.582031 347.671875 L 250.691406 336.496094 L 259.472656 336.496094 Z M 249.359375 347.671875 " fill-opacity="1" fill-rule="evenodd"/></g><g clip-path="url(#c3f80bea84)"><path fill="#090e03" d="M 304.4375 308.558594 L 293.265625 320.53125 L 293.265625 310.953125 L 304.4375 298.714844 Z M 268.253906 347.671875 L 259.472656 347.671875 L 269.582031 336.496094 L 278.363281 336.496094 Z M 268.253906 347.671875 " fill-opacity="1" fill-rule="evenodd"/></g><g clip-path="url(#0ad7b8ebfb)"><path fill="#c1ff72" d="M 304.4375 329.046875 L 287.144531 347.671875 L 278.363281 347.671875 L 288.472656 336.496094 L 293.265625 336.496094 L 293.265625 331.707031 L 304.4375 319.46875 Z M 304.4375 329.046875 " fill-opacity="1" fill-rule="evenodd"/></g><g clip-path="url(#84ad45a5db)"><path fill="#090e03" d="M 297.253906 347.671875 L 304.4375 340.222656 L 304.4375 347.671875 Z M 297.253906 347.671875 " fill-opacity="1" fill-rule="evenodd"/></g><g transform="matrix(1, 0, 0, 1, 72, 0)"><g clip-path="url(#9687cc640f)"><g fill="#ff00ff" fill-opacity="1"><g transform="translate(18.901156, 271.774636)"><g><path d="M 218.265625 -186.609375 C 225.921875 -186.609375 229.75 -184.175781 229.75 -179.3125 C 229.75 -178.007812 229.65625 -177.078125 229.46875 -176.515625 C 228.914062 -174.648438 228.078125 -173.203125 226.953125 -172.171875 C 225.828125 -171.148438 224.238281 -169.984375 222.1875 -168.671875 C 219.382812 -166.992188 217.046875 -165.125 215.171875 -163.0625 C 213.304688 -161.007812 211.722656 -157.835938 210.421875 -153.546875 L 175.671875 -29.140625 C 172.503906 -17.929688 168.535156 -10.082031 163.765625 -5.59375 C 159.003906 -1.113281 152.421875 1.125 144.015625 1.125 C 136.546875 1.125 130.332031 -1.066406 125.375 -5.453125 C 120.425781 -9.847656 115.804688 -16.625 111.515625 -25.78125 L 69.203125 -114.875 L 45.671875 -33.0625 C 45.109375 -30.632812 44.828125 -28.488281 44.828125 -26.625 C 44.828125 -24.1875 45.25 -22.175781 46.09375 -20.59375 C 46.9375 -19.007812 48.101562 -17.375 49.59375 -15.6875 C 51.644531 -13.257812 52.671875 -11.207031 52.671875 -9.53125 C 52.671875 -8.40625 52.578125 -7.5625 52.390625 -7 C 51.648438 -4.382812 49.96875 -2.5625 47.34375 -1.53125 C 44.726562 -0.507812 40.804688 0 35.578125 0 L 5.046875 0 C -2.609375 0 -6.4375 -2.425781 -6.4375 -7.28125 C -6.4375 -8.59375 -6.347656 -9.53125 -6.171875 -10.09375 C -5.609375 -11.957031 -4.765625 -13.398438 -3.640625 -14.421875 C -2.523438 -15.453125 -0.9375 -16.625 1.125 -17.9375 C 3.925781 -19.613281 6.257812 -21.476562 8.125 -23.53125 C 9.988281 -25.59375 11.578125 -28.769531 12.890625 -33.0625 L 48.46875 -158.859375 L 43.984375 -168.109375 C 42.117188 -171.847656 41.1875 -175.117188 41.1875 -177.921875 C 41.1875 -183.710938 44.921875 -186.609375 52.390625 -186.609375 L 93.859375 -186.609375 C 99.835938 -186.609375 104.367188 -185.253906 107.453125 -182.546875 C 110.535156 -179.835938 113.851562 -175.023438 117.40625 -168.109375 L 158.3125 -86.015625 L 177.640625 -153.546875 C 178.203125 -156.160156 178.484375 -158.304688 178.484375 -159.984375 C 178.484375 -162.410156 178.0625 -164.414062 177.21875 -166 C 176.375 -167.59375 175.207031 -169.234375 173.71875 -170.921875 C 171.664062 -173.347656 170.640625 -175.398438 170.640625 -177.078125 C 170.640625 -178.203125 170.734375 -179.039062 170.921875 -179.59375 C 171.660156 -182.207031 173.335938 -184.03125 175.953125 -185.0625 C 178.566406 -186.09375 182.488281 -186.609375 187.71875 -186.609375 Z M 218.265625 -186.609375 "/></g></g></g><g fill="#00ffff" fill-opacity="1"><g transform="translate(8.39392, 271.774636)"><g><path d="M 218.265625 -186.609375 C 225.921875 -186.609375 229.75 -184.175781 229.75 -179.3125 C 229.75 -178.007812 229.65625 -177.078125 229.46875 -176.515625 C 228.914062 -174.648438 228.078125 -173.203125 226.953125 -172.171875 C 225.828125 -171.148438 224.238281 -169.984375 222.1875 -168.671875 C 219.382812 -166.992188 217.046875 -165.125 215.171875 -163.0625 C 213.304688 -161.007812 211.722656 -157.835938 210.421875 -153.546875 L 175.671875 -29.140625 C 172.503906 -17.929688 168.535156 -10.082031 163.765625 -5.59375 C 159.003906 -1.113281 152.421875 1.125 144.015625 1.125 C 136.546875 1.125 130.332031 -1.066406 125.375 -5.453125 C 120.425781 -9.847656 115.804688 -16.625 111.515625 -25.78125 L 69.203125 -114.875 L 45.671875 -33.0625 C 45.109375 -30.632812 44.828125 -28.488281 44.828125 -26.625 C 44.828125 -24.1875 45.25 -22.175781 46.09375 -20.59375 C 46.9375 -19.007812 48.101562 -17.375 49.59375 -15.6875 C 51.644531 -13.257812 52.671875 -11.207031 52.671875 -9.53125 C 52.671875 -8.40625 52.578125 -7.5625 52.390625 -7 C 51.648438 -4.382812 49.96875 -2.5625 47.34375 -1.53125 C 44.726562 -0.507812 40.804688 0 35.578125 0 L 5.046875 0 C -2.609375 0 -6.4375 -2.425781 -6.4375 -7.28125 C -6.4375 -8.59375 -6.347656 -9.53125 -6.171875 -10.09375 C -5.609375 -11.957031 -4.765625 -13.398438 -3.640625 -14.421875 C -2.523438 -15.453125 -0.9375 -16.625 1.125 -17.9375 C 3.925781 -19.613281 6.257812 -21.476562 8.125 -23.53125 C 9.988281 -25.59375 11.578125 -28.769531 12.890625 -33.0625 L 48.46875 -158.859375 L 43.984375 -168.109375 C 42.117188 -171.847656 41.1875 -175.117188 41.1875 -177.921875 C 41.1875 -183.710938 44.921875 -186.609375 52.390625 -186.609375 L 93.859375 -186.609375 C 99.835938 -186.609375 104.367188 -185.253906 107.453125 -182.546875 C 110.535156 -179.835938 113.851562 -175.023438 117.40625 -168.109375 L 158.3125 -86.015625 L 177.640625 -153.546875 C 178.203125 -156.160156 178.484375 -158.304688 178.484375 -159.984375 C 178.484375 -162.410156 178.0625 -164.414062 177.21875 -166 C 176.375 -167.59375 175.207031 -169.234375 173.71875 -170.921875 C 171.664062 -173.347656 170.640625 -175.398438 170.640625 -177.078125 C 170.640625 -178.203125 170.734375 -179.039062 170.921875 -179.59375 C 171.660156 -182.207031 173.335938 -184.03125 175.953125 -185.0625 C 178.566406 -186.09375 182.488281 -186.609375 187.71875 -186.609375 Z M 218.265625 -186.609375 "/></g></g></g><g fill="#c1ff72" fill-opacity="1"><g transform="translate(13.647538, 271.774636)"><g><path d="M 218.265625 -186.609375 C 225.921875 -186.609375 229.75 -184.175781 229.75 -179.3125 C 229.75 -178.007812 229.65625 -177.078125 229.46875 -176.515625 C 228.914062 -174.648438 228.078125 -173.203125 226.953125 -172.171875 C 225.828125 -171.148438 224.238281 -169.984375 222.1875 -168.671875 C 219.382812 -166.992188 217.046875 -165.125 215.171875 -163.0625 C 213.304688 -161.007812 211.722656 -157.835938 210.421875 -153.546875 L 175.671875 -29.140625 C 172.503906 -17.929688 168.535156 -10.082031 163.765625 -5.59375 C 159.003906 -1.113281 152.421875 1.125 144.015625 1.125 C 136.546875 1.125 130.332031 -1.066406 125.375 -5.453125 C 120.425781 -9.847656 115.804688 -16.625 111.515625 -25.78125 L 69.203125 -114.875 L 45.671875 -33.0625 C 45.109375 -30.632812 44.828125 -28.488281 44.828125 -26.625 C 44.828125 -24.1875 45.25 -22.175781 46.09375 -20.59375 C 46.9375 -19.007812 48.101562 -17.375 49.59375 -15.6875 C 51.644531 -13.257812 52.671875 -11.207031 52.671875 -9.53125 C 52.671875 -8.40625 52.578125 -7.5625 52.390625 -7 C 51.648438 -4.382812 49.96875 -2.5625 47.34375 -1.53125 C 44.726562 -0.507812 40.804688 0 35.578125 0 L 5.046875 0 C -2.609375 0 -6.4375 -2.425781 -6.4375 -7.28125 C -6.4375 -8.59375 -6.347656 -9.53125 -6.171875 -10.09375 C -5.609375 -11.957031 -4.765625 -13.398438 -3.640625 -14.421875 C -2.523438 -15.453125 -0.9375 -16.625 1.125 -17.9375 C 3.925781 -19.613281 6.257812 -21.476562 8.125 -23.53125 C 9.988281 -25.59375 11.578125 -28.769531 12.890625 -33.0625 L 48.46875 -158.859375 L 43.984375 -168.109375 C 42.117188 -171.847656 41.1875 -175.117188 41.1875 -177.921875 C 41.1875 -183.710938 44.921875 -186.609375 52.390625 -186.609375 L 93.859375 -186.609375 C 99.835938 -186.609375 104.367188 -185.253906 107.453125 -182.546875 C 110.535156 -179.835938 113.851562 -175.023438 117.40625 -168.109375 L 158.3125 -86.015625 L 177.640625 -153.546875 C 178.203125 -156.160156 178.484375 -158.304688 178.484375 -159.984375 C 178.484375 -162.410156 178.0625 -164.414062 177.21875 -166 C 176.375 -167.59375 175.207031 -169.234375 173.71875 -170.921875 C 171.664062 -173.347656 170.640625 -175.398438 170.640625 -177.078125 C 170.640625 -178.203125 170.734375 -179.039062 170.921875 -179.59375 C 171.660156 -182.207031 173.335938 -184.03125 175.953125 -185.0625 C 178.566406 -186.09375 182.488281 -186.609375 187.71875 -186.609375 Z M 218.265625 -186.609375 "/></g></g></g></g></g></svg>